{"title":"Veer (2010) Repack DVD Rip DIVX AC3 M-SUBS [Dare DEvils]","uid":5506420,"size":945364089,"categoryP":"video","categoryS":"movies","magnet":"?xt=urn:btih:bbb5ae50e8193850c10f33fabcfe18fc78a29e76&amp;dn=Veer+%282010%29+Repack+DVD+Rip+DIVX+AC3+M-SUBS+%5BDare+DEvils%5D&amp;tr=udp%3A%2F%2Ftracker.openbittorrent.com%3A80&amp;tr=udp%3A%2F%2Fopen.demonii.com%3A1337&amp;tr=udp%3A%2F%2Ftracker.coppersurfer.tk%3A6969&amp;tr=udp%3A%2F%2Fexodus.desync.com%3A6969","seeders":2,"leechers":0,"uploader":"luvwithromio","files":-1,"time":1271838463,"description":"Format                           : AVI\nFormat/Info                      : Audio Video Interleave\nFile size                        : 888 MiB\nDuration                         : 2h 42mn\nOverall bit rate                 : 762 Kbps\n\nVideo\nID                               : 0\nFormat                           : MPEG-4 Visual\nFormat profile                   : Simple@L1\nFormat settings, BVOP            : No\nFormat settings, QPel            : No\nFormat settings, GMC             : No warppoints\nFormat settings, Matrix          : Default (H.263)\nCodec ID                         : DX50\nCodec ID/Hint                    : DivX 5\nDuration                         : 2h 42mn\nBit rate                         : 628 Kbps\nWidth                            : 640 pixels\nHeight                           : 320 pixels\nDisplay aspect ratio             : 2.000\nFrame rate                       : 23.976 fps\nResolution                       : 8 bits\nColorimetry                      : 4:2:0\nScan type                        : Progressive\nBits/(Pixel*Frame)               : 0.128\nStream size                      : 732 MiB (82%)\nWriting library                  : Lavc51.40.4\n\nAudio\nID                               : 1\nFormat                           : AC-3\nFormat/Info                      : Audio Coding 3\nCodec ID                         : 2000\nDuration                         : 2h 36mn\nBit rate mode                    : Constant\nBit rate                         : 128 Kbps\nChannel(s)                       : 3 channels\nChannel positions                : L C R\nSampling rate                    : 48.0 KHz\nResolution                       : 16 bits\nStream size                      : 144 MiB (16%)\nAlignment                        : Aligned on interleaves\nInterleave, duration             : 33 ms (0.80 video frame)","torrent":{"xt":"urn:btih:bbb5ae50e8193850c10f33fabcfe18fc78a29e76","amp;dn":"Veer+%282010%29+Repack+DVD+Rip+DIVX+AC3+M-SUBS+%5BDare+DEvils%5D","amp;tr":["udp%3A%2F%2Ftracker.openbittorrent.com%3A80","udp%3A%2F%2Fopen.demonii.com%3A1337","udp%3A%2F%2Ftracker.coppersurfer.tk%3A6969","udp%3A%2F%2Fexodus.desync.com%3A6969"],"infoHash":"bbb5ae50e8193850c10f33fabcfe18fc78a29e76","infoHashBuffer":{"type":"Buffer","data":[187,181,174,80,232,25,56,80,193,15,51,250,188,254,24,252,120,162,158,118]},"announce":[],"urlList":[]}}